<svg width="21" height="15" viewBox="0 0 21 15" fill="none" xmlns="http://www.w3.org/2000/svg">
<path d="M20.2544 2.72351C20.1379 2.28488 19.9081 1.88456 19.5883 1.56261C19.2684 1.24066 18.8695 1.00838 18.4316 0.889006C16.8197 0.455566 10.3767 0.455566 10.3767 0.455566C10.3767 0.455566 3.93368 0.455566 2.32176 0.889006C1.88388 1.00838 1.48504 1.24066 1.16515 1.56261C0.845256 1.88456 0.615532 2.28488 0.498968 2.72351C0.0678711 4.34246 0.0678711 7.7186 0.0678711 7.7186C0.0678711 7.7186 0.0678711 11.0947 0.498968 12.7137C0.615532 13.1523 0.845256 13.5526 1.16515 13.8746C1.48504 14.1965 1.88388 14.4288 2.32176 14.5482C3.93368 14.9816 10.3767 14.9816 10.3767 14.9816C10.3767 14.9816 16.8197 14.9816 18.4316 14.5482C18.8695 14.4288 19.2684 14.1965 19.5883 13.8746C19.9081 13.5526 20.1379 13.1523 20.2544 12.7137C20.6855 11.0947 20.6855 7.7186 20.6855 7.7186C20.6855 7.7186 20.6855 4.34246 20.2544 2.72351Z" fill="#939393"/>
<path d="M8.26807 10.7842V4.65283L13.6568 7.71854L8.26807 10.7842Z" fill="#FEFEFE"/>
</svg>
