<svg width="21" height="22" viewBox="0 0 21 22" fill="none" xmlns="http://www.w3.org/2000/svg">
<rect x="0.135254" y="0.449219" width="20.6713" height="20.6713" rx="6" fill="url(#paint0_radial_134_200)"/>
<rect x="0.135254" y="0.449219" width="20.6713" height="20.6713" rx="6" fill="url(#paint1_radial_134_200)"/>
<rect x="0.135254" y="0.449219" width="20.6713" height="20.6713" rx="6" fill="#939393"/>
<path d="M15.6387 6.72452C15.6387 7.33612 15.1429 7.83192 14.5313 7.83192C13.9197 7.83192 13.4239 7.33612 13.4239 6.72452C13.4239 6.11293 13.9197 5.61713 14.5313 5.61713C15.1429 5.61713 15.6387 6.11293 15.6387 6.72452Z" fill="white"/>
<path fill-rule="evenodd" clip-rule="evenodd" d="M10.4709 14.4763C12.5095 14.4763 14.1622 12.8236 14.1622 10.785C14.1622 8.74631 12.5095 7.09366 10.4709 7.09366C8.43223 7.09366 6.77957 8.74631 6.77957 10.785C6.77957 12.8236 8.43223 14.4763 10.4709 14.4763ZM10.4709 12.9998C11.6941 12.9998 12.6857 12.0082 12.6857 10.785C12.6857 9.56177 11.6941 8.57018 10.4709 8.57018C9.24769 8.57018 8.25609 9.56177 8.25609 10.785C8.25609 12.0082 9.24769 12.9998 10.4709 12.9998Z" fill="white"/>
<path fill-rule="evenodd" clip-rule="evenodd" d="M3.08826 10.4897C3.08826 8.00887 3.08826 6.76847 3.57105 5.82093C3.99573 4.98746 4.67337 4.30982 5.50685 3.88514C6.45438 3.40234 7.69478 3.40234 10.1756 3.40234H10.7662C13.247 3.40234 14.4874 3.40234 15.4349 3.88514C16.2684 4.30982 16.946 4.98746 17.3707 5.82093C17.8535 6.76847 17.8535 8.00887 17.8535 10.4897V11.0803C17.8535 13.5611 17.8535 14.8015 17.3707 15.749C16.946 16.5825 16.2684 17.2601 15.4349 17.6848C14.4874 18.1676 13.247 18.1676 10.7662 18.1676H10.1756C7.69478 18.1676 6.45438 18.1676 5.50685 17.6848C4.67337 17.2601 3.99573 16.5825 3.57105 15.749C3.08826 14.8015 3.08826 13.5611 3.08826 11.0803V10.4897ZM10.1756 4.87887H10.7662C12.0309 4.87887 12.8907 4.88002 13.5553 4.93431C14.2026 4.9872 14.5337 5.08307 14.7646 5.20073C15.3202 5.48385 15.772 5.93561 16.0551 6.49126C16.1728 6.72219 16.2686 7.05323 16.3215 7.70056C16.3758 8.36513 16.377 9.2249 16.377 10.4897V11.0803C16.377 12.345 16.3758 13.2048 16.3215 13.8694C16.2686 14.5167 16.1728 14.8477 16.0551 15.0787C15.772 15.6343 15.3202 16.0861 14.7646 16.3692C14.5337 16.4869 14.2026 16.5827 13.5553 16.6356C12.8907 16.6899 12.0309 16.6911 10.7662 16.6911H10.1756C8.91082 16.6911 8.05104 16.6899 7.38648 16.6356C6.73915 16.5827 6.4081 16.4869 6.17718 16.3692C5.62152 16.0861 5.16976 15.6343 4.88664 15.0787C4.76898 14.8477 4.67312 14.5167 4.62023 13.8694C4.56593 13.2048 4.56478 12.345 4.56478 11.0803V10.4897C4.56478 9.2249 4.56593 8.36513 4.62023 7.70056C4.67312 7.05323 4.76898 6.72219 4.88664 6.49126C5.16976 5.93561 5.62152 5.48385 6.17718 5.20073C6.4081 5.08307 6.73915 4.9872 7.38648 4.93431C8.05104 4.88002 8.91082 4.87887 10.1756 4.87887Z" fill="white"/>
<defs>
<radialGradient id="paint0_radial_134_200" cx="0" cy="0" r="1" gradientUnits="userSpaceOnUse" gradientTransform="translate(7.51788 15.9527) rotate(-55.3758) scale(18.8402)">
<stop stop-color="#B13589"/>
<stop offset="0.79309" stop-color="#C62F94"/>
<stop offset="1" stop-color="#8A3AC8"/>
</radialGradient>
<radialGradient id="paint1_radial_134_200" cx="0" cy="0" r="1" gradientUnits="userSpaceOnUse" gradientTransform="translate(6.77962 21.8588) rotate(-65.1363) scale(16.6805)">
<stop stop-color="#E0E8B7"/>
<stop offset="0.444662" stop-color="#FB8A2E"/>
<stop offset="0.71474" stop-color="#E2425C"/>
<stop offset="1" stop-color="#E2425C" stop-opacity="0"/>
</radialGradient>
</defs>
</svg>
