<svg width="21" height="22" viewBox="0 0 21 22" fill="none" xmlns="http://www.w3.org/2000/svg">
<path d="M20.6177 10.758C20.6177 5.06469 16.0022 0.449219 10.3088 0.449219C4.61547 0.449219 0 5.06469 0 10.758C0 15.5925 3.32851 19.6492 7.81863 20.7634V13.9084H5.69295V10.758H7.81863V9.40058C7.81863 5.89187 9.4066 4.26555 12.8514 4.26555C13.5046 4.26555 14.6315 4.39379 15.0925 4.52162V7.37716C14.8492 7.3516 14.4266 7.33881 13.9017 7.33881C12.2114 7.33881 11.5583 7.9792 11.5583 9.64387V10.758H14.9255L14.347 13.9084H11.5583V20.9914C16.6628 20.3749 20.6181 16.0287 20.6181 10.758H20.6177Z" fill="#939393"/>
<path d="M14.3466 13.9085L14.9251 10.7581H11.5578V9.64395C11.5578 7.97928 12.211 7.33889 13.9012 7.33889C14.4261 7.33889 14.8488 7.35168 15.0921 7.37724V4.5217C14.6311 4.39345 13.5041 4.26562 12.851 4.26562C9.40616 4.26562 7.81819 5.89195 7.81819 9.40066V10.7581H5.6925V13.9085H7.81819V20.7635C8.61568 20.9614 9.44987 21.067 10.3084 21.067C10.731 21.067 11.1479 21.041 11.5574 20.9915V13.9085H14.3461H14.3466Z" fill="white"/>
</svg>
