<svg width="21" height="22" viewBox="0 0 21 22" fill="none" xmlns="http://www.w3.org/2000/svg">
<circle cx="10.5652" cy="10.758" r="10.3088" fill="#939393"/>
<path fill-rule="evenodd" clip-rule="evenodd" d="M6.4361 15.3599L9.7198 9.53785C10.6344 7.80818 12.8146 4.34207 14.218 4.31494C14.4204 4.32248 14.5988 4.63061 14.1566 5.58187C13.5428 6.90192 12.5825 7.59323 11.9352 7.83079C12.0326 7.97022 12.1451 8.40209 11.8482 8.74577C11.7456 8.86452 11.5904 9.02653 11.4047 9.22029C10.9187 9.72745 10.2243 10.4522 9.7198 11.1884C9.02258 12.2058 8.66272 12.7372 8.60649 13.0311C9.48739 12.0249 11.5663 10.2139 12.8348 11.0188C13.2097 11.3316 13.5928 12.337 12.1263 13.8563C11.4104 14.5271 9.30433 15.8098 7.03368 15.834C6.85836 15.8358 6.67986 16.0722 6.6455 16.3554C6.61115 16.6386 6.55909 16.7473 6.19745 16.8872L5.61128 17.1618C5.49703 17.2134 5.31025 17.2547 5.47716 17.007L6.27694 15.6437C6.10307 15.5571 5.75832 15.3641 5.77024 15.2842L5.90934 15.0744C6.00054 15.1382 6.23359 15.2847 6.4361 15.3599ZM13.772 4.91915C13.6269 5.44773 12.9585 6.76007 11.4452 7.78078L11.527 8.08905C11.5477 8.1615 11.5426 8.35033 11.3568 8.52605L10.3721 9.53378C10.7241 8.90421 11.5387 7.51395 11.9817 6.98949C12.1305 6.81342 12.3138 6.58976 12.5064 6.35485C13.031 5.71507 13.624 4.99182 13.772 4.91915ZM7.10163 15.4928C8.11167 14.0411 10.5017 11.1831 11.9817 11.3651C12.1353 11.3927 12.3808 11.6196 12.1338 12.3065C11.8251 13.1652 10.3535 15.2238 7.10163 15.4928Z" fill="white"/>
</svg>
