<svg id="레이어_1" data-name="레이어 1" xmlns="http://www.w3.org/2000/svg" viewBox="0 0 337.75 56.74"><defs><style>.cls-1{fill:#fae100;}</style></defs><path class="cls-1" d="M13.17,68.07h-6V14.21l6-1.36Zm17.5-39,4.75,3.53L23,48.13l14.4,17.21-4.75,3.74L15.84,48.42Z" transform="translate(-7.13 -12.63)"/><path class="cls-1" d="M55.58,46.11h7.56V43c0-6-2.66-8.36-7.7-8.36a26.61,26.61,0,0,0-10.59,2.52l-1.8-4.24a26.4,26.4,0,0,1,12.53-3.46c9,0,13.4,4.32,13.4,13.82V68.07H64.51l-.72-4.17a21.07,21.07,0,0,1-12.38,4.75c-6.7,0-10.73-4-10.73-10.8C40.68,50.14,45.86,46.11,55.58,46.11Zm7.56,13.32V50.36H56.37c-6.84,0-9.93,2.3-9.93,7.2,0,4,2.16,6.19,6.05,6.19A17.13,17.13,0,0,0,63.14,59.43Z" transform="translate(-7.13 -12.63)"/><path class="cls-1" d="M85.82,68.07h-6V14.21l6-1.36Zm17.5-39,4.75,3.53L95.61,48.13,110,65.34l-4.76,3.74L88.49,48.42Z" transform="translate(-7.13 -12.63)"/><path class="cls-1" d="M128.23,46.11h7.56V43c0-6-2.66-8.36-7.71-8.36a26.6,26.6,0,0,0-10.58,2.52l-1.8-4.24a26.37,26.37,0,0,1,12.53-3.46c9,0,13.39,4.32,13.39,13.82V68.07h-4.46l-.72-4.17a21.1,21.1,0,0,1-12.39,4.75c-6.69,0-10.73-4-10.73-10.8C113.32,50.14,118.51,46.11,128.23,46.11Zm7.56,13.32V50.36H129c-6.84,0-9.94,2.3-9.94,7.2,0,4,2.16,6.19,6,6.19A17.14,17.14,0,0,0,135.79,59.43Z" transform="translate(-7.13 -12.63)"/><path class="cls-1" d="M184,49.21c0,12.6-6.27,19.58-16.85,19.58s-16.85-7-16.85-19.58,6.41-19.73,16.85-19.73S184,36.54,184,49.21Zm-27.44,0c0,9.58,3.89,14.62,10.59,14.62s10.58-5,10.58-14.62-3.88-14.76-10.58-14.76S156.52,39.63,156.52,49.21Z" transform="translate(-7.13 -12.63)"/><path class="cls-1" d="M193,66.92V14.36l9.65-1.73V31.42A16.48,16.48,0,0,1,211.24,29c10.23,0,15,7,15,19.15,0,13.18-7.2,21-19.15,21C201.52,69.15,195.62,68.07,193,66.92Zm9.65-29.3V61.67a22.55,22.55,0,0,0,3.46.21c6.05,0,10.37-3.81,10.37-13.54,0-7.34-1.8-11.59-8.64-11.59A17.47,17.47,0,0,0,202.6,37.62Z" transform="translate(-7.13 -12.63)"/><path class="cls-1" d="M246.59,45h6v-1.3c0-4.17-1.29-6.55-7-6.55a21.29,21.29,0,0,0-10.23,2.52L232.77,33a26.08,26.08,0,0,1,14-4c9.72,0,14.83,4.75,14.83,14.61V68.07h-6.77l-1.08-3.24a19,19,0,0,1-11.44,4.25c-7.42,0-11.53-4.39-11.53-11.95C230.82,49.14,236.3,45,246.59,45Zm6,13.61V51.15h-5.18c-5.19,0-7.92,2.09-7.92,5.91,0,2.73,1.58,4.53,4.75,4.53A13.71,13.71,0,0,0,252.64,58.57Z" transform="translate(-7.13 -12.63)"/><path class="cls-1" d="M270.28,30.13h6.84l1.44,3.81a19.32,19.32,0,0,1,12.1-5c8.49,0,12.74,5.25,12.74,14.76V68.07h-9.65V43.45c0-4.25-1.58-6.05-6.69-6.05a22.12,22.12,0,0,0-7.13,1.44V68.07h-9.65Z" transform="translate(-7.13 -12.63)"/><path class="cls-1" d="M331.77,47.91l13.1,15.7-7.27,5.76L321.69,49.86V68.07H312V14.36l9.65-1.73V47.55l14.54-19.73,7.2,5Z" transform="translate(-7.13 -12.63)"/></svg>