<svg width="145" height="23" viewBox="0 0 145 23" fill="none" xmlns="http://www.w3.org/2000/svg">
<path fill-rule="evenodd" clip-rule="evenodd" d="M139.374 14.3018L145 20.6656L141.878 23L135.045 15.0895V22.4753H130.903V0.700447L135.045 0V14.156L141.291 6.15939L144.382 8.20216L139.374 14.3018ZM0 0.641877V22.4741H2.59739V0.0860617L0 0.641877ZM3.741 14.5074L10.9431 22.8829L12.9832 21.3648L6.80113 14.389L12.1485 8.08502L10.1084 6.65425L3.741 14.5074ZM24.0486 15.2939H21.1448C18.207 15.2939 16.878 16.2286 16.878 18.2128C16.878 19.8181 17.806 20.7229 19.4754 20.7229C20.9884 20.7229 22.968 19.9651 24.0498 18.9718L24.0486 15.2939ZM24.0486 13.5727V12.3176C24.0486 9.89471 22.905 8.9313 20.7413 8.9313C19.227 8.9313 17.5261 9.36878 16.1971 9.95328L15.4242 8.23085C17.0633 7.35469 19.0404 6.82996 20.8031 6.82996C24.6677 6.82996 26.5527 8.58107 26.5527 12.4335V22.4741H24.6361L24.3272 20.7815C22.7196 22.0079 20.648 22.7083 19.0101 22.7083C16.1353 22.7083 14.4042 21.0732 14.4042 18.33C14.4042 15.2066 16.6296 13.5727 20.8031 13.5727H24.0486ZM41.2973 6.65425L43.3373 8.08502L37.9887 14.389L44.172 21.366L42.132 22.8841L34.9286 14.5062L41.2973 6.65425ZM33.785 22.4753H31.1876V0.641877L33.785 0.087257V22.4753ZM55.2374 15.2939H52.3311C49.3933 15.2939 48.0656 16.2286 48.0656 18.2128C48.0656 19.8181 48.9923 20.7229 50.663 20.7229C52.176 20.7229 54.1556 19.9651 55.2374 18.9718V15.2939ZM55.2374 13.5727V12.3176C55.2374 9.89471 54.0938 8.9313 51.9289 8.9313C50.4159 8.9313 48.7137 9.36878 47.3847 9.95328L46.6118 8.23085C48.251 7.35469 50.2293 6.82996 51.9907 6.82996C55.8553 6.82996 57.7403 8.58107 57.7403 12.4335V22.4741H55.8237L55.5148 20.7815C53.9085 22.0079 51.8369 22.7083 50.1977 22.7083C47.323 22.7083 45.5918 21.0732 45.5918 18.33C45.5918 15.2066 47.8172 13.5727 51.9907 13.5727H55.2374ZM68.6834 20.7528C71.5581 20.7528 73.2275 18.7089 73.2275 14.8277C73.2275 10.9454 71.5581 8.84404 68.6834 8.84404C65.8086 8.84404 64.1392 10.9454 64.1392 14.8277C64.1392 18.7089 65.8086 20.7528 68.6834 20.7528ZM68.6834 22.7669C64.1694 22.7669 61.4497 19.9352 61.4497 14.8277C61.4497 9.69031 64.201 6.82996 68.6834 6.82996C73.1973 6.82996 75.917 9.69031 75.917 14.8265C75.917 19.9352 73.2275 22.7669 68.6834 22.7669ZM83.921 19.8767C84.4124 19.9431 84.9086 19.9727 85.405 19.9651C88.0011 19.9651 89.8559 18.4172 89.8559 14.4775C89.8559 11.5 89.083 9.77757 86.1464 9.77757C85.2184 9.77757 84.4152 9.98197 83.921 10.1278V19.8767ZM79.7777 0.700447L83.921 0V7.61766C85.0371 6.96869 86.321 6.6253 87.6304 6.62556C92.0195 6.62556 94.0609 9.45723 94.0609 14.3902C94.0609 19.7308 90.9692 22.9127 85.8375 22.9127C83.457 22.9127 80.9226 22.4753 79.7777 22.0079V0.700447ZM105.404 15.6154H103.178C100.953 15.6154 99.7777 16.4617 99.7777 18.0084C99.7777 19.1177 100.459 19.848 101.818 19.848C103.24 19.848 104.662 19.2348 105.404 18.6216V15.6154ZM105.404 13.1053V12.5794C105.404 10.8868 104.848 9.9234 102.405 9.9234C100.875 9.91094 99.3653 10.2623 98.015 10.9454L96.8714 8.26073C98.4487 7.23875 100.769 6.62436 102.9 6.62436C107.073 6.62436 109.267 8.55119 109.267 12.5495V22.4741H106.362L105.898 21.1592C104.229 22.3856 102.436 22.8817 100.983 22.8817C97.7993 22.8817 96.0367 21.1019 96.0367 18.0371C96.0367 14.7978 98.3869 13.1041 102.808 13.1041H105.405L105.404 13.1053ZM112.976 7.09292H115.913L116.531 8.63964C117.983 7.41326 119.993 6.62436 121.724 6.62436C125.372 6.62436 127.197 8.75559 127.197 12.608V22.4729H123.053V12.4921C123.053 10.7697 122.372 10.0393 120.179 10.0393C119.312 10.0393 118.077 10.2724 117.118 10.6226V22.4729H112.976V7.09292Z" fill="#272727"/>
</svg>
