<svg width="55" height="55" viewBox="0 0 55 55" fill="none" xmlns="http://www.w3.org/2000/svg">
<path d="M49.8348 55H5.16516C2.31323 55 0 52.6868 0 49.8348V5.16516C0 2.31323 2.31323 0 5.16516 0H49.8348C52.6868 0 55 2.31323 55 5.16516V49.8348C55 52.6868 52.6868 55 49.8348 55Z" fill="#FFE300"/>
<path d="M27.7117 11.0853C34.2192 11.0853 39.4949 16.361 39.4949 22.8685C39.4948 26.9269 37.4413 30.5031 34.3181 32.6218C33.7831 32.9848 33.3988 33.544 33.3275 34.1866L33.2119 35.2288C33.0995 36.2418 32.2433 37.0082 31.2241 37.0082H24.1997C23.1808 37.0082 22.3247 36.2421 22.212 35.2293L22.0961 34.1873C22.0246 33.5448 21.6404 32.9859 21.1055 32.623C17.9821 30.5042 15.9286 26.9271 15.9285 22.8685C15.9285 16.361 21.2042 11.0854 27.7117 11.0853Z" fill="#1E1E1E"/>
<path d="M23.7409 40.7804C23.6897 40.196 24.1504 39.6932 24.7371 39.6932H30.6833C31.2699 39.6932 31.7306 40.196 31.6795 40.7804L31.448 43.4254C31.4028 43.942 30.9703 44.3383 30.4518 44.3383H24.9685C24.45 44.3383 24.0175 43.942 23.9723 43.4254L23.7409 40.7804Z" fill="#1E1E1E"/>
</svg>
