<svg width="55" height="55" viewBox="0 0 55 55" fill="none" xmlns="http://www.w3.org/2000/svg">
<path d="M49.8348 55H5.16516C2.31323 55 0 52.6868 0 49.8348V5.16516C0 2.31323 2.31323 0 5.16516 0H49.8348C52.6868 0 55 2.31323 55 5.16516V49.8348C55 52.6868 52.6868 55 49.8348 55Z" fill="#FFE300"/>
<path d="M39.6667 13H16.3333C14.5 13 13 14.5 13 16.3333V39.6667C13 41.5 14.5 43 16.3333 43H39.6667C41.5 43 43 41.5 43 39.6667V16.3333C43 14.5 41.5 13 39.6667 13ZM36.3333 36.3333H19.6667V33H36.3333V36.3333ZM36.3333 29.6667H19.6667V26.3333H36.3333V29.6667ZM36.3333 23H19.6667V19.6667H36.3333V23Z" fill="#323232"/>
</svg>
