<svg width="130" height="129" viewBox="0 0 130 129" fill="none" xmlns="http://www.w3.org/2000/svg">
<path d="M117.025 129H12.2543C5.56523 129 0.139648 123.574 0.139648 116.885V12.1147C0.139648 5.42558 5.56523 0 12.2543 0H117.025C123.714 0 129.14 5.42558 129.14 12.1147V116.885C129.14 123.574 123.714 129 117.025 129Z" fill="#FFE300"/>
<path d="M86.2425 64.4999C92.0025 60.6971 95.8054 54.1814 95.8054 46.7615C95.8054 35.0433 86.3044 25.5299 74.5738 25.5299H38.9978C38.3165 25.5299 37.7715 26.0749 37.7715 26.7562V102.231C37.7715 102.913 38.3165 103.47 38.9978 103.47H74.5862C86.3168 103.47 95.8178 93.969 95.8178 82.2384C95.8178 74.8185 92.0025 68.3028 86.2425 64.4999ZM68.7766 82.2384H62.0875V46.7615H68.7766V82.2384Z" fill="#0073FF"/>
</svg>
