<svg width="83" height="83" viewBox="0 0 83 83" fill="none" xmlns="http://www.w3.org/2000/svg">
<circle cx="41.5" cy="41.5" r="40.5" fill="white" stroke="#E4E4E4" stroke-width="2"/>
<path d="M44.2974 25.2974L60.1194 41.187L44.2974 57.009L41.2547 54.1691L51.5323 44.0945C52.2985 43.4634 53.0198 42.945 53.6959 42.5393C52.9522 42.6972 52.2086 42.8549 51.4646 43.0126C50.766 43.1703 50.1688 43.2493 49.6728 43.2493H24.2495L24.2495 39.0571L49.6728 39.0571C50.1913 39.0796 50.7885 39.1586 51.4646 39.2938C52.1634 39.4517 52.8959 39.6205 53.6621 39.8009C53.3241 39.5981 52.9748 39.384 52.6141 39.1586C52.276 38.9107 51.9268 38.6065 51.5661 38.2457L41.2886 28.1711L44.2974 25.2974Z" fill="#333333"/>
</svg>
